<?xml version="1.0" encoding="UTF-8" standalone="no"?>
<!-- Created with Inkscape (http://www.inkscape.org/) -->

<svg
   width="50.000015mm"
   height="13.5mm"
   viewBox="0 0 50.000015 13.5"
   version="1.1"
   id="svg5"
   xml:space="preserve"
   inkscape:export-filename="bitmap.svg"
   inkscape:export-xdpi="96"
   inkscape:export-ydpi="96"
   xmlns:inkscape="http://www.inkscape.org/namespaces/inkscape"
   xmlns:sodipodi="http://sodipodi.sourceforge.net/DTD/sodipodi-0.dtd"
   xmlns="http://www.w3.org/2000/svg"
   xmlns:svg="http://www.w3.org/2000/svg"><sodipodi:namedview
     id="namedview7"
     pagecolor="#ffffff"
     bordercolor="#000000"
     borderopacity="0.25"
     inkscape:showpageshadow="2"
     inkscape:pageopacity="0.0"
     inkscape:pagecheckerboard="0"
     inkscape:deskcolor="#d1d1d1"
     inkscape:document-units="mm"
     showgrid="false" /><defs
     id="defs2" /><g
     inkscape:label="Layer 1"
     inkscape:groupmode="layer"
     id="layer1"
     transform="translate(-72.192556,-233.19123)"><path
       style="fill:#000000;stroke-width:0.129071"
       d="m 72.192556,237.77358 c 3.582959,0.34784 8.624711,0.91233 11.313077,-2.46914 12.434989,3.26213 11.522679,2.98458 25.556167,2.65908 0.151,-0.0881 0.10491,-1.49156 0.0814,-1.70941 -1.38359,1.25795 -2.3062,0.27825 -2.33835,-0.72479 -0.0319,-0.99514 0.13266,-1.05754 0.22901,-1.33057 0.72392,-1.38986 2.51245,-1.14342 3.21978,-0.4459 0.70733,0.69751 1.09424,2.09312 1.24984,3.7494 l 7.18936,-1.43808 c 0.63367,-0.43102 1.78485,-2.0225 2.95714,-0.37986 l 0.54259,3.31028 c -0.4754,1.64265 -1.95047,0.68686 -2.71296,0.51553 l -7.2165,1.57375 c 0.22375,2.69472 0.57684,4.04794 -0.31429,4.88215 -0.74146,0.6941 -1.74888,1.05834 -2.71066,0.31391 -1.34409,-1.16338 -1.13679,-3.78697 1.01735,-2.97112 -0.12809,-0.46453 -0.0899,-0.66166 -0.62398,-1.19387 -9.988402,1.39617 -35.173187,3.49299 -37.438964,-4.34136 z"
       id="path486"
       sodipodi:nodetypes="ccccscsccccccscccc"
       inkscape:export-filename="scimitarlogo.svg"
       inkscape:export-xdpi="96"
       inkscape:export-ydpi="96" /></g></svg>
